<svg xmlns="http://www.w3.org/2000/svg" width="1280" height="720" viewBox="0 0 1280 720"><rect width="1280" height="720" fill="#ffffff"/><text x="640.0" y="60" font-size="18" fill="#16191d" font-weight="bold" text-anchor="middle" font-family="NanumGothic, Helvetica, Arial, sans-serif">MetricLens approach: forecasting to SLO-constrained integer-programming rightsizing</text><rect x="38.0" y="350" width="184" height="132" rx="9" fill="#ffffff" stroke="#16191d"/><circle cx="60.0" cy="393.0" r="13" fill="#1f77b4"/><text x="60.0" y="397.0" font-size="13" fill="#fff" font-weight="bold" text-anchor="middle" font-family="NanumGothic, Helvetica, Arial, sans-serif">1</text><text x="82.0" y="398.0" font-size="14" fill="#16191d" font-weight="bold" text-anchor="start" font-family="NanumGothic, Helvetica, Arial, sans-serif">Metric history</text><text x="54.0" y="425.0" font-size="11.5" fill="#454b52" font-weight="normal" text-anchor="start" font-family="NanumGothic, Helvetica, Arial, sans-serif">CPU · memory · network</text><text x="54.0" y="443.0" font-size="11.5" fill="#454b52" font-weight="normal" text-anchor="start" font-family="NanumGothic, Helvetica, Arial, sans-serif">time series (hourly)</text><rect x="242.0" y="350" width="184" height="132" rx="9" fill="#ffffff" stroke="#16191d"/><circle cx="264.0" cy="393.0" r="13" fill="#1f77b4"/><text x="264.0" y="397.0" font-size="13" fill="#fff" font-weight="bold" text-anchor="middle" font-family="NanumGothic, Helvetica, Arial, sans-serif">2</text><text x="286.0" y="398.0" font-size="13.0" fill="#16191d" font-weight="bold" text-anchor="start" font-family="NanumGothic, Helvetica, Arial, sans-serif">Decomposition + AR</text><text x="258.0" y="425.0" font-size="11.5" fill="#454b52" font-weight="normal" text-anchor="start" font-family="NanumGothic, Helvetica, Arial, sans-serif">trend + seasonal</text><text x="258.0" y="443.0" font-size="11.5" fill="#454b52" font-weight="normal" text-anchor="start" font-family="NanumGothic, Helvetica, Arial, sans-serif">+ rho·residual -&gt; forecast</text><line x1="222.0" y1="416.0" x2="234.0" y2="416.0" stroke="#16191d" stroke-width="1.5"/><path d="M242.0,416.0 L234.0,411.0 L234.0,421.0 Z" fill="#16191d"/><rect x="446.0" y="350" width="184" height="132" rx="9" fill="#ffffff" stroke="#16191d"/><circle cx="468.0" cy="393.0" r="13" fill="#1f77b4"/><text x="468.0" y="397.0" font-size="13" fill="#fff" font-weight="bold" text-anchor="middle" font-family="NanumGothic, Helvetica, Arial, sans-serif">3</text><text x="490.0" y="398.0" font-size="14" fill="#16191d" font-weight="bold" text-anchor="start" font-family="NanumGothic, Helvetica, Arial, sans-serif">Robust peak (p95)</text><text x="462.0" y="425.0" font-size="11.5" fill="#454b52" font-weight="normal" text-anchor="start" font-family="NanumGothic, Helvetica, Arial, sans-serif">p95 of the forecast</text><text x="462.0" y="443.0" font-size="11.5" fill="#454b52" font-weight="normal" text-anchor="start" font-family="NanumGothic, Helvetica, Arial, sans-serif">(ignores transient spikes)</text><line x1="426.0" y1="416.0" x2="438.0" y2="416.0" stroke="#16191d" stroke-width="1.5"/><path d="M446.0,416.0 L438.0,411.0 L438.0,421.0 Z" fill="#16191d"/><rect x="650.0" y="350" width="184" height="132" rx="9" fill="#ffffff" stroke="#16191d"/><circle cx="672.0" cy="393.0" r="13" fill="#1f77b4"/><text x="672.0" y="397.0" font-size="13" fill="#fff" font-weight="bold" text-anchor="middle" font-family="NanumGothic, Helvetica, Arial, sans-serif">4</text><text x="694.0" y="398.0" font-size="14" fill="#16191d" font-weight="bold" text-anchor="start" font-family="NanumGothic, Helvetica, Arial, sans-serif">Integer program</text><text x="666.0" y="425.0" font-size="11.5" fill="#454b52" font-weight="normal" text-anchor="start" font-family="NanumGothic, Helvetica, Arial, sans-serif">smallest allocation</text><text x="666.0" y="443.0" font-size="11.5" fill="#454b52" font-weight="normal" text-anchor="start" font-family="NanumGothic, Helvetica, Arial, sans-serif">s.t. headroom (exact)</text><line x1="630.0" y1="416.0" x2="642.0" y2="416.0" stroke="#16191d" stroke-width="1.5"/><path d="M650.0,416.0 L642.0,411.0 L642.0,421.0 Z" fill="#16191d"/><rect x="854.0" y="350" width="184" height="132" rx="9" fill="#ffffff" stroke="#16191d"/><circle cx="876.0" cy="393.0" r="13" fill="#1f77b4"/><text x="876.0" y="397.0" font-size="13" fill="#fff" font-weight="bold" text-anchor="middle" font-family="NanumGothic, Helvetica, Arial, sans-serif">5</text><text x="898.0" y="398.0" font-size="14" fill="#16191d" font-weight="bold" text-anchor="start" font-family="NanumGothic, Helvetica, Arial, sans-serif">GCP machine type</text><text x="870.0" y="425.0" font-size="11.5" fill="#454b52" font-weight="normal" text-anchor="start" font-family="NanumGothic, Helvetica, Arial, sans-serif">snap to the nearest</text><text x="870.0" y="443.0" font-size="11.5" fill="#454b52" font-weight="normal" text-anchor="start" font-family="NanumGothic, Helvetica, Arial, sans-serif">E2/N2/C2/C3 instance</text><line x1="834.0" y1="416.0" x2="846.0" y2="416.0" stroke="#16191d" stroke-width="1.5"/><path d="M854.0,416.0 L846.0,411.0 L846.0,421.0 Z" fill="#16191d"/><rect x="1058.0" y="350" width="184" height="132" rx="9" fill="#ffffff" stroke="#16191d"/><circle cx="1080.0" cy="393.0" r="13" fill="#1f77b4"/><text x="1080.0" y="397.0" font-size="13" fill="#fff" font-weight="bold" text-anchor="middle" font-family="NanumGothic, Helvetica, Arial, sans-serif">6</text><text x="1102.0" y="398.0" font-size="14" fill="#16191d" font-weight="bold" text-anchor="start" font-family="NanumGothic, Helvetica, Arial, sans-serif">Resize + audit</text><text x="1074.0" y="425.0" font-size="11.5" fill="#454b52" font-weight="normal" text-anchor="start" font-family="NanumGothic, Helvetica, Arial, sans-serif">SLO preserved</text><text x="1074.0" y="443.0" font-size="11.5" fill="#454b52" font-weight="normal" text-anchor="start" font-family="NanumGothic, Helvetica, Arial, sans-serif">persisted to audit log</text><line x1="1038.0" y1="416.0" x2="1050.0" y2="416.0" stroke="#16191d" stroke-width="1.5"/><path d="M1058.0,416.0 L1050.0,411.0 L1050.0,421.0 Z" fill="#16191d"/><rect x="224.0" y="108" width="220" height="174" rx="6" fill="#fff" stroke="#16191d"/><text x="230.0" y="104" font-size="8.5" fill="#454b52" font-weight="normal" text-anchor="start" font-family="NanumGothic, Helvetica, Arial, sans-serif">forecast + 95% interval</text><polygon points="360.4,225.9 368.0,234.3 375.6,241.0 383.1,245.6 390.7,247.9 398.2,247.9 405.8,245.6 413.3,241.0 420.9,234.6 428.4,226.6 436.0,217.4 436.0,235.4 428.4,244.6 420.9,252.6 413.3,259.0 405.8,263.6 398.2,265.9 390.7,265.9 383.1,263.6 375.6,259.0 368.0,252.3 360.4,243.9" fill="#1f77b4" fill-opacity="0.15"/><polyline points="232.0,195.0 239.6,185.1 247.1,175.7 254.7,167.3 262.2,160.4 269.8,155.3 277.3,152.3 284.9,151.7 292.4,153.4 300.0,157.4 307.6,163.5 315.1,171.5 322.7,181.1 330.2,191.7 337.8,202.9 345.3,214.1 352.9,225.0 360.4,234.9" fill="none" stroke="#111" stroke-width="1.4"/><polyline points="360.4,234.9 368.0,243.3 375.6,250.0 383.1,254.6 390.7,256.9 398.2,256.9 405.8,254.6 413.3,250.0 420.9,243.6 428.4,235.6 436.0,226.4" fill="none" stroke="#1f77b4" stroke-width="1.4" stroke-dasharray="4 3"/><line x1="334.0" y1="282" x2="334.0" y2="350" stroke="#16191d" stroke-width="1" stroke-dasharray="3 3"/><rect x="230.0" y="540" width="820" height="104" rx="10" fill="#ffffff" stroke="#1f77b4" stroke-opacity="0.5"/><text x="640.0" y="584" font-size="16" fill="#16191d" font-weight="bold" text-anchor="middle" font-family="Consolas, monospace">peak_load × safety_margin  ≤  target_utilisation × allocation</text><text x="640.0" y="614" font-size="12" fill="#454b52" font-weight="normal" text-anchor="middle" font-family="NanumGothic, Helvetica, Arial, sans-serif">exact enumeration of the smallest feasible integer size</text><line x1="640.0" y1="540" x2="742.0" y2="482" stroke="#1f77b4" stroke-width="1" stroke-dasharray="3 3"/><text x="640.0" y="698" font-size="13" fill="#16191d" font-weight="normal" text-anchor="middle" font-family="NanumGothic, Helvetica, Arial, sans-serif">Figure. The MetricLens method: a white-box, GPU-free pipeline from telemetry to SLO-aware rightsizing.</text></svg>