<svg xmlns="http://www.w3.org/2000/svg" width="1280" height="470" viewBox="0 0 1280 470"><rect width="1280" height="470" fill="#ffffff"/><text x="640.0" y="40" font-size="16" fill="#1f2328" font-weight="bold" text-anchor="middle" font-family="NanumGothic, Helvetica, Arial, sans-serif">MetricLens approach: forecasting to SLO-constrained integer-programming rightsizing</text><rect x="61.0" y="170" width="178" height="96" rx="9" fill="#ffffff" stroke="#c2c9d1"/><circle cx="81.0" cy="190" r="12" fill="#1f77b4"/><text x="81.0" y="194" font-size="12" fill="#fff" font-weight="bold" text-anchor="middle" font-family="NanumGothic, Helvetica, Arial, sans-serif">1</text><text x="101.0" y="195" font-size="12.5" fill="#1f2328" font-weight="bold" text-anchor="start" font-family="NanumGothic, Helvetica, Arial, sans-serif">Metric history</text><text x="75.0" y="218" font-size="10" fill="#57606a" font-weight="normal" text-anchor="start" font-family="NanumGothic, Helvetica, Arial, sans-serif">CPU · memory · network</text><text x="75.0" y="233" font-size="10" fill="#57606a" font-weight="normal" text-anchor="start" font-family="NanumGothic, Helvetica, Arial, sans-serif">time series (hourly)</text><rect x="257.0" y="170" width="178" height="96" rx="9" fill="#ffffff" stroke="#c2c9d1"/><circle cx="277.0" cy="190" r="12" fill="#1f77b4"/><text x="277.0" y="194" font-size="12" fill="#fff" font-weight="bold" text-anchor="middle" font-family="NanumGothic, Helvetica, Arial, sans-serif">2</text><text x="297.0" y="195" font-size="12.5" fill="#1f2328" font-weight="bold" text-anchor="start" font-family="NanumGothic, Helvetica, Arial, sans-serif">Decomposition + AR</text><text x="271.0" y="218" font-size="10" fill="#57606a" font-weight="normal" text-anchor="start" font-family="NanumGothic, Helvetica, Arial, sans-serif">trend + seasonal</text><text x="271.0" y="233" font-size="10" fill="#57606a" font-weight="normal" text-anchor="start" font-family="NanumGothic, Helvetica, Arial, sans-serif">+ rho·residual -&gt; forecast</text><line x1="239.0" y1="218.0" x2="249.0" y2="218.0" stroke="#57606a" stroke-width="1.5"/><path d="M257.0,218.0 L249.0,213.0 L249.0,223.0 Z" fill="#57606a"/><rect x="453.0" y="170" width="178" height="96" rx="9" fill="#ffffff" stroke="#c2c9d1"/><circle cx="473.0" cy="190" r="12" fill="#1f77b4"/><text x="473.0" y="194" font-size="12" fill="#fff" font-weight="bold" text-anchor="middle" font-family="NanumGothic, Helvetica, Arial, sans-serif">3</text><text x="493.0" y="195" font-size="12.5" fill="#1f2328" font-weight="bold" text-anchor="start" font-family="NanumGothic, Helvetica, Arial, sans-serif">Robust peak (p95)</text><text x="467.0" y="218" font-size="10" fill="#57606a" font-weight="normal" text-anchor="start" font-family="NanumGothic, Helvetica, Arial, sans-serif">p95 of the forecast</text><text x="467.0" y="233" font-size="10" fill="#57606a" font-weight="normal" text-anchor="start" font-family="NanumGothic, Helvetica, Arial, sans-serif">(ignores transient spikes)</text><line x1="435.0" y1="218.0" x2="445.0" y2="218.0" stroke="#57606a" stroke-width="1.5"/><path d="M453.0,218.0 L445.0,213.0 L445.0,223.0 Z" fill="#57606a"/><rect x="649.0" y="170" width="178" height="96" rx="9" fill="#ffffff" stroke="#c2c9d1"/><circle cx="669.0" cy="190" r="12" fill="#1f77b4"/><text x="669.0" y="194" font-size="12" fill="#fff" font-weight="bold" text-anchor="middle" font-family="NanumGothic, Helvetica, Arial, sans-serif">4</text><text x="689.0" y="195" font-size="12.5" fill="#1f2328" font-weight="bold" text-anchor="start" font-family="NanumGothic, Helvetica, Arial, sans-serif">Integer program</text><text x="663.0" y="218" font-size="10" fill="#57606a" font-weight="normal" text-anchor="start" font-family="NanumGothic, Helvetica, Arial, sans-serif">smallest allocation</text><text x="663.0" y="233" font-size="10" fill="#57606a" font-weight="normal" text-anchor="start" font-family="NanumGothic, Helvetica, Arial, sans-serif">s.t. headroom (exact)</text><line x1="631.0" y1="218.0" x2="641.0" y2="218.0" stroke="#57606a" stroke-width="1.5"/><path d="M649.0,218.0 L641.0,213.0 L641.0,223.0 Z" fill="#57606a"/><rect x="845.0" y="170" width="178" height="96" rx="9" fill="#ffffff" stroke="#c2c9d1"/><circle cx="865.0" cy="190" r="12" fill="#1f77b4"/><text x="865.0" y="194" font-size="12" fill="#fff" font-weight="bold" text-anchor="middle" font-family="NanumGothic, Helvetica, Arial, sans-serif">5</text><text x="885.0" y="195" font-size="12.5" fill="#1f2328" font-weight="bold" text-anchor="start" font-family="NanumGothic, Helvetica, Arial, sans-serif">GCP machine type</text><text x="859.0" y="218" font-size="10" fill="#57606a" font-weight="normal" text-anchor="start" font-family="NanumGothic, Helvetica, Arial, sans-serif">snap to the nearest</text><text x="859.0" y="233" font-size="10" fill="#57606a" font-weight="normal" text-anchor="start" font-family="NanumGothic, Helvetica, Arial, sans-serif">E2/N2/C2/C3 instance</text><line x1="827.0" y1="218.0" x2="837.0" y2="218.0" stroke="#57606a" stroke-width="1.5"/><path d="M845.0,218.0 L837.0,213.0 L837.0,223.0 Z" fill="#57606a"/><rect x="1041.0" y="170" width="178" height="96" rx="9" fill="#ffffff" stroke="#c2c9d1"/><circle cx="1061.0" cy="190" r="12" fill="#1f77b4"/><text x="1061.0" y="194" font-size="12" fill="#fff" font-weight="bold" text-anchor="middle" font-family="NanumGothic, Helvetica, Arial, sans-serif">6</text><text x="1081.0" y="195" font-size="12.5" fill="#1f2328" font-weight="bold" text-anchor="start" font-family="NanumGothic, Helvetica, Arial, sans-serif">Resize + audit</text><text x="1055.0" y="218" font-size="10" fill="#57606a" font-weight="normal" text-anchor="start" font-family="NanumGothic, Helvetica, Arial, sans-serif">SLO preserved</text><text x="1055.0" y="233" font-size="10" fill="#57606a" font-weight="normal" text-anchor="start" font-family="NanumGothic, Helvetica, Arial, sans-serif">persisted to audit log</text><line x1="1023.0" y1="218.0" x2="1033.0" y2="218.0" stroke="#57606a" stroke-width="1.5"/><path d="M1041.0,218.0 L1033.0,213.0 L1033.0,223.0 Z" fill="#57606a"/><rect x="265.0" y="58" width="162" height="80" rx="6" fill="#fff" stroke="#c2c9d1"/><text x="271.0" y="54" font-size="8.5" fill="#57606a" font-weight="normal" text-anchor="start" font-family="NanumGothic, Helvetica, Arial, sans-serif">forecast + 95% interval</text><polygon points="364.9,103.9 370.3,107.0 375.7,109.5 381.1,111.3 386.6,112.1 392.0,112.1 397.4,111.2 402.8,109.5 408.2,107.1 413.6,104.1 419.0,100.7 419.0,118.7 413.6,122.1 408.2,125.1 402.8,127.5 397.4,129.2 392.0,130.1 386.6,130.1 381.1,129.3 375.7,127.5 370.3,125.0 364.9,121.9" fill="#1f77b4" fill-opacity="0.15"/><polyline points="273.0,98.0 278.4,94.3 283.8,90.8 289.2,87.7 294.6,85.1 300.0,83.2 305.4,82.1 310.9,81.8 316.3,82.5 321.7,83.9 327.1,86.2 332.5,89.2 337.9,92.8 343.3,96.8 348.7,100.9 354.1,105.1 359.5,109.2 364.9,112.9" fill="none" stroke="#111" stroke-width="1.4"/><polyline points="364.9,112.9 370.3,116.0 375.7,118.5 381.1,120.3 386.6,121.1 392.0,121.1 397.4,120.2 402.8,118.5 408.2,116.1 413.6,113.1 419.0,109.7" fill="none" stroke="#1f77b4" stroke-width="1.4" stroke-dasharray="4 3"/><line x1="346.0" y1="138" x2="346.0" y2="170" stroke="#c2c9d1" stroke-width="1" stroke-dasharray="3 3"/><rect x="423.0" y="306" width="434" height="64" rx="8" fill="#eef4fb" stroke="#1f77b4" stroke-opacity="0.5"/><text x="640.0" y="332" font-size="13" fill="#1f2328" font-weight="bold" text-anchor="middle" font-family="Consolas, monospace">peak_load × safety_margin  ≤  target_utilisation × allocation</text><text x="640.0" y="354" font-size="10" fill="#57606a" font-weight="normal" text-anchor="middle" font-family="NanumGothic, Helvetica, Arial, sans-serif">exact enumeration of the smallest feasible integer size</text><line x1="640.0" y1="306" x2="738.0" y2="266" stroke="#1f77b4" stroke-width="1" stroke-dasharray="3 3"/><text x="640.0" y="454" font-size="12" fill="#1f2328" font-weight="normal" text-anchor="middle" font-family="NanumGothic, Helvetica, Arial, sans-serif">Figure. The MetricLens method: a white-box, GPU-free pipeline from telemetry to SLO-aware rightsizing.</text></svg>