<svg xmlns="http://www.w3.org/2000/svg" width="1000" height="664" viewBox="0 0 1000 664"><rect width="1000" height="664" fill="#ffffff"/><rect x="40" y="36" width="920" height="104" rx="10" fill="#ffffff" stroke="#16191d"/><text x="60" y="85.0" font-size="14" fill="#16191d" font-weight="bold" text-anchor="start" font-family="NanumGothic, Helvetica, Arial, sans-serif">표현 계층 (Presentation)</text><text x="60" y="103.0" font-size="10" fill="#454b52" font-weight="normal" text-anchor="start" font-family="NanumGothic, Helvetica, Arial, sans-serif">브라우저 SPA · Cloud Run</text><rect x="378.0" y="56.0" width="196" height="64" rx="8" fill="#ffffff" stroke="#16191d"/><g transform="translate(394.0,74.0) scale(1.1666666666666667)"><path d="M14.23 12.004a2.236 2.236 0 0 1-2.235 2.236 2.236 2.236 0 0 1-2.236-2.236 2.236 2.236 0 0 1 2.235-2.236 2.236 2.236 0 0 1 2.236 2.236zm2.648-10.69c-1.346 0-3.107.96-4.888 2.622-1.78-1.653-3.542-2.602-4.887-2.602-.41 0-.783.093-1.106.278-1.375.793-1.683 3.264-.973 6.365C1.98 8.917 0 10.42 0 12.004c0 1.59 1.99 3.097 5.043 4.03-.704 3.113-.39 5.588.988 6.38.32.187.69.275 1.102.275 1.345 0 3.107-.96 4.888-2.624 1.78 1.654 3.542 2.603 4.887 2.603.41 0 .783-.09 1.106-.275 1.374-.792 1.683-3.263.973-6.365C22.02 15.096 24 13.59 24 12.004c0-1.59-1.99-3.097-5.043-4.032.704-3.11.39-5.587-.988-6.38-.318-.184-.688-.277-1.092-.278zm-.005 1.09v.006c.225 0 .406.044.558.127.666.382.955 1.835.73 3.704-.054.46-.142.945-.25 1.44-.96-.236-2.006-.417-3.107-.534-.66-.905-1.345-1.727-2.035-2.447 1.592-1.48 3.087-2.292 4.105-2.295zm-9.77.02c1.012 0 2.514.808 4.11 2.28-.686.72-1.37 1.537-2.02 2.442-1.107.117-2.154.298-3.113.538-.112-.49-.195-.964-.254-1.42-.23-1.868.054-3.32.714-3.707.19-.09.4-.127.563-.132zm4.882 3.05c.455.468.91.992 1.36 1.564-.44-.02-.89-.034-1.345-.034-.46 0-.915.01-1.36.034.44-.572.895-1.096 1.345-1.565zM12 8.1c.74 0 1.477.034 2.202.093.406.582.802 1.203 1.183 1.86.372.64.71 1.29 1.018 1.946-.308.655-.646 1.31-1.013 1.95-.38.66-.773 1.288-1.18 1.87-.728.063-1.466.098-2.21.098-.74 0-1.477-.035-2.202-.093-.406-.582-.802-1.204-1.183-1.86-.372-.64-.71-1.29-1.018-1.946.303-.657.646-1.313 1.013-1.954.38-.66.773-1.286 1.18-1.868.728-.064 1.466-.098 2.21-.098zm-3.635.254c-.24.377-.48.763-.704 1.16-.225.39-.435.782-.635 1.174-.265-.656-.49-1.31-.676-1.947.64-.15 1.315-.283 2.015-.386zm7.26 0c.695.103 1.365.23 2.006.387-.18.632-.405 1.282-.66 1.933-.2-.39-.41-.783-.64-1.174-.225-.392-.465-.774-.705-1.146zm3.063.675c.484.15.944.317 1.375.498 1.732.74 2.852 1.708 2.852 2.476-.005.768-1.125 1.74-2.857 2.475-.42.18-.88.342-1.355.493-.28-.958-.646-1.956-1.1-2.98.45-1.017.81-2.01 1.085-2.964zm-13.395.004c.278.96.645 1.957 1.1 2.98-.45 1.017-.812 2.01-1.086 2.964-.484-.15-.944-.318-1.37-.5-1.732-.737-2.852-1.706-2.852-2.474 0-.768 1.12-1.742 2.852-2.476.42-.18.88-.342 1.356-.494zm11.678 4.28c.265.657.49 1.312.676 1.948-.64.157-1.316.29-2.016.39.24-.375.48-.762.705-1.158.225-.39.435-.788.636-1.18zm-9.945.02c.2.392.41.783.64 1.175.23.39.465.772.705 1.143-.695-.102-1.365-.23-2.006-.386.18-.63.406-1.282.66-1.933zM17.92 16.32c.112.493.2.968.254 1.423.23 1.868-.054 3.32-.714 3.708-.147.09-.338.128-.563.128-1.012 0-2.514-.807-4.11-2.28.686-.72 1.37-1.536 2.02-2.44 1.107-.118 2.154-.3 3.113-.54zm-11.83.01c.96.234 2.006.415 3.107.532.66.905 1.345 1.727 2.035 2.446-1.595 1.483-3.092 2.295-4.11 2.295-.22-.005-.406-.05-.553-.132-.666-.38-.955-1.834-.73-3.703.054-.46.142-.944.25-1.438zm4.56.64c.44.02.89.034 1.345.034.46 0 .915-.01 1.36-.034-.44.572-.895 1.095-1.345 1.565-.455-.47-.91-.993-1.36-1.565z" fill="#149ECA"/></g><text x="434.0" y="84.0" font-size="14" fill="#16191d" font-weight="bold" text-anchor="start" font-family="NanumGothic, Helvetica, Arial, sans-serif">React 19 SPA</text><text x="434.0" y="103.0" font-size="11" fill="#454b52" font-weight="normal" text-anchor="start" font-family="NanumGothic, Helvetica, Arial, sans-serif">Vite · ECharts (Canvas)</text><rect x="600.0" y="56.0" width="196" height="64" rx="8" fill="#ffffff" stroke="#16191d"/><g transform="translate(616.0,74.0) scale(1.1666666666666667)"><path d="M12 0L1.605 6v12L12 24l10.395-6V6L12 0zm6 16.59c0 .705-.646 1.29-1.529 1.29-.631 0-1.351-.255-1.801-.81l-6-7.141v6.66c0 .721-.57 1.29-1.274 1.29H7.32c-.721 0-1.29-.6-1.29-1.29V7.41c0-.705.63-1.29 1.5-1.29.646 0 1.38.255 1.83.81l5.97 7.141V7.41c0-.721.6-1.29 1.29-1.29h.075c.72 0 1.29.6 1.29 1.29v9.18H18z" fill="#009639"/></g><text x="656.0" y="84.0" font-size="14" fill="#16191d" font-weight="bold" text-anchor="start" font-family="NanumGothic, Helvetica, Arial, sans-serif">nginx</text><text x="656.0" y="103.0" font-size="11" fill="#454b52" font-weight="normal" text-anchor="start" font-family="NanumGothic, Helvetica, Arial, sans-serif">비루트 정적 서빙</text><line x1="500.0" y1="140" x2="500.0" y2="177" stroke="#16191d" stroke-width="1.4"/><path d="M495.0,177 L505.0,177 L500.0,186 Z" fill="#16191d"/><text x="514.0" y="167.0" font-size="11" fill="#454b52" font-weight="normal" text-anchor="start" font-family="NanumGothic, Helvetica, Arial, sans-serif">REST / HTTPS (CORS)</text><rect x="40" y="186" width="920" height="104" rx="10" fill="#ffffff" stroke="#16191d"/><text x="60" y="235.0" font-size="14" fill="#16191d" font-weight="bold" text-anchor="start" font-family="NanumGothic, Helvetica, Arial, sans-serif">업무 계층 (Business)</text><text x="60" y="253.0" font-size="10" fill="#454b52" font-weight="normal" text-anchor="start" font-family="NanumGothic, Helvetica, Arial, sans-serif">레이어드 FastAPI + 의존성 없는 Core</text><rect x="267.0" y="206.0" width="196" height="64" rx="8" fill="#ffffff" stroke="#16191d"/><g transform="translate(283.0,224.0) scale(1.1666666666666667)"><path d="M12 .0387C5.3729.0384.0003 5.3931 0 11.9988c-.001 6.6066 5.372 11.9628 12 11.9625 6.628.0003 12.001-5.3559 12-11.9625-.0003-6.6057-5.3729-11.9604-12-11.96m-.829 5.4153h7.55l-7.5805 5.3284h5.1828L5.279 18.5436q2.9466-6.5444 5.892-13.0896" fill="#009688"/></g><text x="323.0" y="234.0" font-size="14" fill="#16191d" font-weight="bold" text-anchor="start" font-family="NanumGothic, Helvetica, Arial, sans-serif">FastAPI</text><text x="323.0" y="253.0" font-size="11" fill="#454b52" font-weight="normal" text-anchor="start" font-family="NanumGothic, Helvetica, Arial, sans-serif">Controller · Service · Repository</text><rect x="489.0" y="206.0" width="196" height="64" rx="8" fill="#ffffff" stroke="#16191d"/><g transform="translate(505.0,224.0) scale(1.1666666666666667)"><path d="M14.25.18l.9.2.73.26.59.3.45.32.34.34.25.34.16.33.1.3.04.26.02.2-.01.13V8.5l-.05.63-.13.55-.21.46-.26.38-.3.31-.33.25-.35.19-.35.14-.33.1-.3.07-.26.04-.21.02H8.77l-.69.05-.59.14-.5.22-.41.27-.33.32-.27.35-.2.36-.15.37-.1.35-.07.32-.04.27-.02.21v3.06H3.17l-.21-.03-.28-.07-.32-.12-.35-.18-.36-.26-.36-.36-.35-.46-.32-.59-.28-.73-.21-.88-.14-1.05-.05-1.23.06-1.22.16-1.04.24-.87.32-.71.36-.57.4-.44.42-.33.42-.24.4-.16.36-.1.32-.05.24-.01h.16l.06.01h8.16v-.83H6.18l-.01-2.75-.02-.37.05-.34.11-.31.17-.28.25-.26.31-.23.38-.2.44-.18.51-.15.58-.12.64-.1.71-.06.77-.04.84-.02 1.27.05zm-6.3 1.98l-.23.33-.08.41.08.41.23.34.33.22.41.09.41-.09.33-.22.23-.34.08-.41-.08-.41-.23-.33-.33-.22-.41-.09-.41.09zm13.09 3.95l.28.06.32.12.35.18.36.27.36.35.35.47.32.59.28.73.21.88.14 1.04.05 1.23-.06 1.23-.16 1.04-.24.86-.32.71-.36.57-.4.45-.42.33-.42.24-.4.16-.36.09-.32.05-.24.02-.16-.01h-8.22v.82h5.84l.01 2.76.02.36-.05.34-.11.31-.17.29-.25.25-.31.24-.38.2-.44.17-.51.15-.58.13-.64.09-.71.07-.77.04-.84.01-1.27-.04-1.07-.14-.9-.2-.73-.25-.59-.3-.45-.33-.34-.34-.25-.34-.16-.33-.1-.3-.04-.25-.02-.2.01-.13v-5.34l.05-.64.13-.54.21-.46.26-.38.3-.32.33-.24.35-.2.35-.14.33-.1.3-.06.26-.04.21-.02.13-.01h5.84l.69-.05.59-.14.5-.21.41-.28.33-.32.27-.35.2-.36.15-.36.1-.35.07-.32.04-.28.02-.21V6.07h2.09l.14.01zm-6.47 14.25l-.23.33-.08.41.08.41.23.33.33.23.41.08.41-.08.33-.23.23-.33.08-.41-.08-.41-.23-.33-.33-.23-.41-.08-.41.08z" fill="#3776AB"/></g><text x="545.0" y="234.0" font-size="14" fill="#16191d" font-weight="bold" text-anchor="start" font-family="NanumGothic, Helvetica, Arial, sans-serif">Pure Core</text><text x="545.0" y="253.0" font-size="11" fill="#454b52" font-weight="normal" text-anchor="start" font-family="NanumGothic, Helvetica, Arial, sans-serif">forecaster · optimizer</text><rect x="711.0" y="206.0" width="196" height="64" rx="8" fill="#ffffff" stroke="#16191d"/><g transform="translate(727.0,224.0) scale(1.1666666666666667)"><path d="M11.8 15.955a44.068 44.068 0 0 1-1.673-.691c-1.736-.757-1.981-.772-2.499-.143-.119.146-.25.236-.287.2-.111-.111.219-.644.617-.993.325-.285.433-.325.791-.285.228.025.985.29 1.682.586 1.573.669 2.034.811 2.635.811.731 0 1.106-.512.876-1.192-.057-.171-.04-.228.074-.228.213 0 .322.797.168 1.255a1.617 1.617 0 0 1-.424.614c-.251.211-.41.257-.879.254a3.853 3.853 0 0 1-1.082-.188h.001Zm.301-2.225c0-.048.179-.134.401-.188l.401-.099.086-1.446c.094-1.599.025-3.172-.148-3.383-.063-.074-.253-.165-.427-.205-.705-.156-.236-.264 1.133-.264 1.368 0 1.803.099 1.152.264-.561.14-.564.148-.564 2.43 0 1.266.046 2.22.111 2.342.092.171.228.207.752.207 1.081 0 1.453-.255 1.747-1.203.088-.284.315-.233.236.054-.037.134-.097.54-.134.91l-.068.669H14.44c-1.286 0-2.339-.04-2.339-.088Zm5.312-.068c0-.086.083-.171.219-.236.183-.086.302-.265.734-1.11.686-1.337 1.767-3.634 1.87-3.978.079-.262.097-.276.392-.31.171-.02.313-.031.316-.025l.527 1.152c.284.628.856 1.824 1.271 2.654.695 1.397.772 1.523 1.005 1.636.142.069.253.174.253.237 0 .099-.122.111-1.175.111-1.056 0-1.175-.012-1.175-.114 0-.068.091-.142.236-.191.134-.043.236-.122.236-.182 0-.057-.139-.432-.31-.834l-.31-.731h-2.35l-.225.495c-.421.928-.43 1.147-.037 1.252.196.054.25.097.227.185-.025.103-.127.117-.867.117-.794.006-.837 0-.837-.128Zm-15.652.025a10.933 10.933 0 0 1-.808-.196l-.549-.154.282-.518.281-.518-.227-.281c-.322-.399-.737-1.272-.74-1.554-.003-.657.851-1.61 1.898-2.122.72-.353 1.291-.362 2.009-.026l.54.253.157-.224c.085-.123.156-.285.156-.356 0-.071.071-.134.157-.134.085 0 .156.023.156.048 0 .063-.629 1.651-.669 1.691-.017.016-.187-.063-.381-.177-.546-.321-1.232-.535-1.764-.549-1.238-.031-1.667 1.178-.794 2.236l.308.373.839-.68c.942-.76 1.05-.777 1.784-.27.825.569.839 1.434.042 2.339-.705.805-1.431 1.027-2.677.819Zm5.984-.165c-.646-.301-1.229-.876-1.565-1.547-.538-1.076-.373-1.765.646-2.695.856-.782 1.556-1.087 2.498-1.087.68 0 .825.037 1.266.307 1.044.646 1.303 1.878.675 3.221-.737 1.577-2.294 2.37-3.52 1.801Zm-3.872-.702c.409-.322.381-.917-.063-1.389-.558-.592-.731-.566-1.713.253-.976.814-.982.783.185 1.155.771.251 1.255.242 1.591-.019Zm6.034-.046c.484-.239.817-1.343.68-2.259-.17-1.13-1.698-1.901-2.819-1.423-1.153.493-1.17 1.804-.037 2.985.791.828 1.471 1.044 2.176.697Zm11.359-1.414c.04-.071-.845-2.003-.928-2.023-.06-.017-.976 1.872-.976 2.014 0 .072 1.861.08 1.904.009Z" fill="#D71F00"/></g><text x="767.0" y="234.0" font-size="14" fill="#16191d" font-weight="bold" text-anchor="start" font-family="NanumGothic, Helvetica, Arial, sans-serif">SQLAlchemy 2.0</text><text x="767.0" y="253.0" font-size="11" fill="#454b52" font-weight="normal" text-anchor="start" font-family="NanumGothic, Helvetica, Arial, sans-serif">비동기 ORM</text><line x1="500.0" y1="290" x2="500.0" y2="327" stroke="#16191d" stroke-width="1.4"/><path d="M495.0,327 L505.0,327 L500.0,336 Z" fill="#16191d"/><text x="514.0" y="317.0" font-size="11" fill="#454b52" font-weight="normal" text-anchor="start" font-family="NanumGothic, Helvetica, Arial, sans-serif">SQLAlchemy 2.0 async</text><rect x="40" y="336" width="920" height="104" rx="10" fill="#ffffff" stroke="#16191d"/><text x="60" y="385.0" font-size="14" fill="#16191d" font-weight="bold" text-anchor="start" font-family="NanumGothic, Helvetica, Arial, sans-serif">데이터 계층 (Data)</text><text x="60" y="403.0" font-size="10" fill="#454b52" font-weight="normal" text-anchor="start" font-family="NanumGothic, Helvetica, Arial, sans-serif">운영 Postgres · 데모 SQLite</text><rect x="378.0" y="356.0" width="196" height="64" rx="8" fill="#ffffff" stroke="#16191d"/><g transform="translate(394.0,374.0) scale(1.1666666666666667)"><path d="M23.5594 14.7228a.5269.5269 0 0 0-.0563-.1191c-.139-.2632-.4768-.3418-1.0074-.2321-1.6533.3411-2.2935.1312-2.5256-.0191 1.342-2.0482 2.445-4.522 3.0411-6.8297.2714-1.0507.7982-3.5237.1222-4.7316a1.5641 1.5641 0 0 0-.1509-.235C21.6931.9086 19.8007.0248 17.5099.0005c-1.4947-.0158-2.7705.3461-3.1161.4794a9.449 9.449 0 0 0-.5159-.0816 8.044 8.044 0 0 0-1.3114-.1278c-1.1822-.0184-2.2038.2642-3.0498.8406-.8573-.3211-4.7888-1.645-7.2219.0788C.9359 2.1526.3086 3.8733.4302 6.3043c.0409.818.5069 3.334 1.2423 5.7436.4598 1.5065.9387 2.7019 1.4334 3.582.553.9942 1.1259 1.5933 1.7143 1.7895.4474.1491 1.1327.1441 1.8581-.7279.8012-.9635 1.5903-1.8258 1.9446-2.2069.4351.2355.9064.3625 1.39.3772a.0569.0569 0 0 0 .0004.0041 11.0312 11.0312 0 0 0-.2472.3054c-.3389.4302-.4094.5197-1.5002.7443-.3102.064-1.1344.2339-1.1464.8115-.0025.1224.0329.2309.0919.3268.2269.4231.9216.6097 1.015.6331 1.3345.3335 2.5044.092 3.3714-.6787-.017 2.231.0775 4.4174.3454 5.0874.2212.5529.7618 1.9045 2.4692 1.9043.2505 0 .5263-.0291.8296-.0941 1.7819-.3821 2.5557-1.1696 2.855-2.9059.1503-.8707.4016-2.8753.5388-4.1012.0169-.0703.0357-.1207.057-.1362.0007-.0005.0697-.0471.4272.0307a.3673.3673 0 0 0 .0443.0068l.2539.0223.0149.001c.8468.0384 1.9114-.1426 2.5312-.4308.6438-.2988 1.8057-1.0323 1.5951-1.6698zM2.371 11.8765c-.7435-2.4358-1.1779-4.8851-1.2123-5.5719-.1086-2.1714.4171-3.6829 1.5623-4.4927 1.8367-1.2986 4.8398-.5408 6.108-.13-.0032.0032-.0066.0061-.0098.0094-2.0238 2.044-1.9758 5.536-1.9708 5.7495-.0002.0823.0066.1989.0162.3593.0348.5873.0996 1.6804-.0735 2.9184-.1609 1.1504.1937 2.2764.9728 3.0892.0806.0841.1648.1631.2518.2374-.3468.3714-1.1004 1.1926-1.9025 2.1576-.5677.6825-.9597.5517-1.0886.5087-.3919-.1307-.813-.5871-1.2381-1.3223-.4796-.839-.9635-2.0317-1.4155-3.5126zm6.0072 5.0871c-.1711-.0428-.3271-.1132-.4322-.1772.0889-.0394.2374-.0902.4833-.1409 1.2833-.2641 1.4815-.4506 1.9143-1.0002.0992-.126.2116-.2687.3673-.4426a.3549.3549 0 0 0 .0737-.1298c.1708-.1513.2724-.1099.4369-.0417.156.0646.3078.26.3695.4752.0291.1016.0619.2945-.0452.4444-.9043 1.2658-2.2216 1.2494-3.1676 1.0128zm2.094-3.988-.0525.141c-.133.3566-.2567.6881-.3334 1.003-.6674-.0021-1.3168-.2872-1.8105-.8024-.6279-.6551-.9131-1.5664-.7825-2.5004.1828-1.3079.1153-2.4468.079-3.0586-.005-.0857-.0095-.1607-.0122-.2199.2957-.2621 1.6659-.9962 2.6429-.7724.4459.1022.7176.4057.8305.928.5846 2.7038.0774 3.8307-.3302 4.7363-.084.1866-.1633.3629-.2311.5454zm7.3637 4.5725c-.0169.1768-.0358.376-.0618.5959l-.146.4383a.3547.3547 0 0 0-.0182.1077c-.0059.4747-.054.6489-.115.8693-.0634.2292-.1353.4891-.1794 1.0575-.11 1.4143-.8782 2.2267-2.4172 2.5565-1.5155.3251-1.7843-.4968-2.0212-1.2217a6.5824 6.5824 0 0 0-.0769-.2266c-.2154-.5858-.1911-1.4119-.1574-2.5551.0165-.5612-.0249-1.9013-.3302-2.6462.0044-.2932.0106-.5909.019-.8918a.3529.3529 0 0 0-.0153-.1126 1.4927 1.4927 0 0 0-.0439-.208c-.1226-.4283-.4213-.7866-.7797-.9351-.1424-.059-.4038-.1672-.7178-.0869.067-.276.1831-.5875.309-.9249l.0529-.142c.0595-.16.134-.3257.213-.5012.4265-.9476 1.0106-2.2453.3766-5.1772-.2374-1.0981-1.0304-1.6343-2.2324-1.5098-.7207.0746-1.3799.3654-1.7088.5321a5.6716 5.6716 0 0 0-.1958.1041c.0918-1.1064.4386-3.1741 1.7357-4.4823a4.0306 4.0306 0 0 1 .3033-.276.3532.3532 0 0 0 .1447-.0644c.7524-.5706 1.6945-.8506 2.802-.8325.4091.0067.8017.0339 1.1742.081 1.939.3544 3.2439 1.4468 4.0359 2.3827.8143.9623 1.2552 1.9315 1.4312 2.4543-1.3232-.1346-2.2234.1268-2.6797.779-.9926 1.4189.543 4.1729 1.2811 5.4964.1353.2426.2522.4522.2889.5413.2403.5825.5515.9713.7787 1.2552.0696.087.1372.1714.1885.245-.4008.1155-1.1208.3825-1.0552 1.717-.0123.1563-.0423.4469-.0834.8148-.0461.2077-.0702.4603-.0994.7662zm.8905-1.6211c-.0405-.8316.2691-.9185.5967-1.0105a2.8566 2.8566 0 0 0 .135-.0406 1.202 1.202 0 0 0 .1342.103c.5703.3765 1.5823.4213 3.0068.1344-.2016.1769-.5189.3994-.9533.6011-.4098.1903-1.0957.333-1.7473.3636-.7197.0336-1.0859-.0807-1.1721-.151zm.5695-9.2712c-.0059.3508-.0542.6692-.1054 1.0017-.055.3576-.112.7274-.1264 1.1762-.0142.4368.0404.8909.0932 1.3301.1066.887.216 1.8003-.2075 2.7014a3.5272 3.5272 0 0 1-.1876-.3856c-.0527-.1276-.1669-.3326-.3251-.6162-.6156-1.1041-2.0574-3.6896-1.3193-4.7446.3795-.5427 1.3408-.5661 2.1781-.463zm.2284 7.0137a12.3762 12.3762 0 0 0-.0853-.1074l-.0355-.0444c.7262-1.1995.5842-2.3862.4578-3.4385-.0519-.4318-.1009-.8396-.0885-1.2226.0129-.4061.0666-.7543.1185-1.0911.0639-.415.1288-.8443.1109-1.3505.0134-.0531.0188-.1158.0118-.1902-.0457-.4855-.5999-1.938-1.7294-3.253-.6076-.7073-1.4896-1.4972-2.6889-2.0395.5251-.1066 1.2328-.2035 2.0244-.1859 2.0515.0456 3.6746.8135 4.8242 2.2824a.908.908 0 0 1 .0667.1002c.7231 1.3556-.2762 6.2751-2.9867 10.5405zm-8.8166-6.1162c-.025.1794-.3089.4225-.6211.4225a.5821.5821 0 0 1-.0809-.0056c-.1873-.026-.3765-.144-.5059-.3156-.0458-.0605-.1203-.178-.1055-.2844.0055-.0401.0261-.0985.0925-.1488.1182-.0894.3518-.1226.6096-.0867.3163.0441.6426.1938.6113.4186zm7.9305-.4114c.0111.0792-.049.201-.1531.3102-.0683.0717-.212.1961-.4079.2232a.5456.5456 0 0 1-.075.0052c-.2935 0-.5414-.2344-.5607-.3717-.024-.1765.2641-.3106.5611-.352.297-.0414.6111.0088.6356.1851z" fill="#4169E1"/></g><text x="434.0" y="384.0" font-size="14" fill="#16191d" font-weight="bold" text-anchor="start" font-family="NanumGothic, Helvetica, Arial, sans-serif">PostgreSQL</text><text x="434.0" y="403.0" font-size="11" fill="#454b52" font-weight="normal" text-anchor="start" font-family="NanumGothic, Helvetica, Arial, sans-serif">운영 (Cloud SQL)</text><rect x="600.0" y="356.0" width="196" height="64" rx="8" fill="#ffffff" stroke="#16191d"/><g transform="translate(616.0,374.0) scale(1.1666666666666667)"><path d="M21.678.521c-1.032-.92-2.28-.55-3.513.544a8.71 8.71 0 0 0-.547.535c-2.109 2.237-4.066 6.38-4.674 9.544.237.48.422 1.093.544 1.561a13.044 13.044 0 0 1 .164.703s-.019-.071-.096-.296l-.05-.146a1.689 1.689 0 0 0-.033-.08c-.138-.32-.518-.995-.686-1.289-.143.423-.27.818-.376 1.176.484.884.778 2.4.778 2.4s-.025-.099-.147-.442c-.107-.303-.644-1.244-.772-1.464-.217.804-.304 1.346-.226 1.478.152.256.296.698.422 1.186.286 1.1.485 2.44.485 2.44l.017.224a22.41 22.41 0 0 0 .056 2.748c.095 1.146.273 2.13.5 2.657l.155-.084c-.334-1.038-.47-2.399-.41-3.967.09-2.398.642-5.29 1.661-8.304 1.723-4.55 4.113-8.201 6.3-9.945-1.993 1.8-4.692 7.63-5.5 9.788-.904 2.416-1.545 4.684-1.931 6.857.666-2.037 2.821-2.912 2.821-2.912s1.057-1.304 2.292-3.166c-.74.169-1.955.458-2.362.629-.6.251-.762.337-.762.337s1.945-1.184 3.613-1.72C21.695 7.9 24.195 2.767 21.678.521m-18.573.543A1.842 1.842 0 0 0 1.27 2.9v16.608a1.84 1.84 0 0 0 1.835 1.834h9.418a22.953 22.953 0 0 1-.052-2.707c-.006-.062-.011-.141-.016-.2a27.01 27.01 0 0 0-.473-2.378c-.121-.47-.275-.898-.369-1.057-.116-.197-.098-.31-.097-.432 0-.12.015-.245.037-.386a9.98 9.98 0 0 1 .234-1.045l.217-.028c-.017-.035-.014-.065-.031-.097l-.041-.381a32.8 32.8 0 0 1 .382-1.194l.2-.019c-.008-.016-.01-.038-.018-.053l-.043-.316c.63-3.28 2.587-7.443 4.8-9.791.066-.069.133-.128.198-.194Z" fill="#003B57"/></g><text x="656.0" y="384.0" font-size="14" fill="#16191d" font-weight="bold" text-anchor="start" font-family="NanumGothic, Helvetica, Arial, sans-serif">SQLite</text><text x="656.0" y="403.0" font-size="11" fill="#454b52" font-weight="normal" text-anchor="start" font-family="NanumGothic, Helvetica, Arial, sans-serif">내장 데모 (자동 시드)</text><text x="40" y="470" font-size="12.5" fill="#16191d" font-weight="bold" text-anchor="start" font-family="NanumGothic, Helvetica, Arial, sans-serif">배포 인프라 (계층 횡단 관심사)</text><line x1="40" y1="480" x2="960" y2="480" stroke="#16191d" stroke-width="1" stroke-dasharray="4 4"/><line x1="500.0" y1="446" x2="500.0" y2="471" stroke="#16191d" stroke-width="1.4"/><path d="M495.0,471 L505.0,471 L500.0,480 Z" fill="#16191d"/><text x="514.0" y="467.0" font-size="11" fill="#454b52" font-weight="normal" text-anchor="start" font-family="NanumGothic, Helvetica, Arial, sans-serif">빌드·배포</text><rect x="40" y="494" width="445" height="132" rx="10" fill="#ffffff" stroke="#16191d"/><text x="58" y="518" font-size="13" fill="#16191d" font-weight="bold" text-anchor="start" font-family="NanumGothic, Helvetica, Arial, sans-serif">런타임 플랫폼</text><text x="58" y="534" font-size="10" fill="#454b52" font-weight="normal" text-anchor="start" font-family="NanumGothic, Helvetica, Arial, sans-serif">GCP 네이티브, scale-to-zero</text><rect x="58.0" y="544" width="195.5" height="64" rx="8" fill="#ffffff" stroke="#16191d"/><g transform="translate(74.0,562.0) scale(1.1666666666666667)"><path d="M12.19 2.38a9.344 9.344 0 0 0-9.234 6.893c.053-.02-.055.013 0 0-3.875 2.551-3.922 8.11-.247 10.941l.006-.007-.007.03a6.717 6.717 0 0 0 4.077 1.356h5.173l.03.03h5.192c6.687.053 9.376-8.605 3.835-12.35a9.365 9.365 0 0 0-2.821-4.552l-.043.043.006-.05A9.344 9.344 0 0 0 12.19 2.38zm-.358 4.146c1.244-.04 2.518.368 3.486 1.15a5.186 5.186 0 0 1 1.862 4.078v.518c3.53-.07 3.53 5.262 0 5.193h-5.193l-.008.009v-.04H6.785a2.59 2.59 0 0 1-1.067-.23h.001a2.597 2.597 0 1 1 3.437-3.437l3.013-3.012A6.747 6.747 0 0 0 8.11 8.24c.018-.01.04-.026.054-.023a5.186 5.186 0 0 1 3.67-1.69z" fill="#4285F4"/></g><text x="114.0" y="572.0" font-size="14" fill="#16191d" font-weight="bold" text-anchor="start" font-family="NanumGothic, Helvetica, Arial, sans-serif">Cloud Run</text><text x="114.0" y="591.0" font-size="11" fill="#454b52" font-weight="normal" text-anchor="start" font-family="NanumGothic, Helvetica, Arial, sans-serif">서버리스 · scale-to-zero</text><rect x="271.5" y="544" width="195.5" height="64" rx="8" fill="#ffffff" stroke="#16191d"/><g transform="translate(287.5,562.0) scale(1.1666666666666667)"><path d="M13.983 11.078h2.119a.186.186 0 00.186-.185V9.006a.186.186 0 00-.186-.186h-2.119a.185.185 0 00-.185.185v1.888c0 .102.083.185.185.185m-2.954-5.43h2.118a.186.186 0 00.186-.186V3.574a.186.186 0 00-.186-.185h-2.118a.185.185 0 00-.185.185v1.888c0 .102.082.185.185.185m0 2.716h2.118a.187.187 0 00.186-.186V6.29a.186.186 0 00-.186-.185h-2.118a.185.185 0 00-.185.185v1.887c0 .102.082.185.185.186m-2.93 0h2.12a.186.186 0 00.184-.186V6.29a.185.185 0 00-.185-.185H8.1a.185.185 0 00-.185.185v1.887c0 .102.083.185.185.186m-2.964 0h2.119a.186.186 0 00.185-.186V6.29a.185.185 0 00-.185-.185H5.136a.186.186 0 00-.186.185v1.887c0 .102.084.185.186.186m5.893 2.715h2.118a.186.186 0 00.186-.185V9.006a.186.186 0 00-.186-.186h-2.118a.185.185 0 00-.185.185v1.888c0 .102.082.185.185.185m-2.93 0h2.12a.185.185 0 00.184-.185V9.006a.185.185 0 00-.184-.186h-2.12a.185.185 0 00-.184.185v1.888c0 .102.083.185.185.185m-2.964 0h2.119a.185.185 0 00.185-.185V9.006a.185.185 0 00-.184-.186h-2.12a.186.186 0 00-.186.186v1.887c0 .102.084.185.186.185m-2.92 0h2.12a.185.185 0 00.184-.185V9.006a.185.185 0 00-.184-.186h-2.12a.185.185 0 00-.184.185v1.888c0 .102.082.185.185.185M23.763 9.89c-.065-.051-.672-.51-1.954-.51-.338.001-.676.03-1.01.087-.248-1.7-1.653-2.53-1.716-2.566l-.344-.199-.226.327c-.284.438-.49.922-.612 1.43-.23.97-.09 1.882.403 2.661-.595.332-1.55.413-1.744.42H.751a.751.751 0 00-.75.748 11.376 11.376 0 00.692 4.062c.545 1.428 1.355 2.48 2.41 3.124 1.18.723 3.1 1.137 5.275 1.137.983.003 1.963-.086 2.93-.266a12.248 12.248 0 003.823-1.389c.98-.567 1.86-1.288 2.61-2.136 1.252-1.418 1.998-2.997 2.553-4.4h.221c1.372 0 2.215-.549 2.68-1.009.309-.293.55-.65.707-1.046l.098-.288Z" fill="#2496ED"/></g><text x="327.5" y="572.0" font-size="14" fill="#16191d" font-weight="bold" text-anchor="start" font-family="NanumGothic, Helvetica, Arial, sans-serif">Docker</text><text x="327.5" y="591.0" font-size="11" fill="#454b52" font-weight="normal" text-anchor="start" font-family="NanumGothic, Helvetica, Arial, sans-serif">비루트 컨테이너 이미지</text><rect x="515" y="494" width="445" height="132" rx="10" fill="#ffffff" stroke="#16191d"/><text x="533" y="518" font-size="13" fill="#16191d" font-weight="bold" text-anchor="start" font-family="NanumGothic, Helvetica, Arial, sans-serif">CI/CD 파이프라인</text><text x="533" y="534" font-size="10" fill="#454b52" font-weight="normal" text-anchor="start" font-family="NanumGothic, Helvetica, Arial, sans-serif">Cloud Build → Cloud Run</text><rect x="533.0" y="544" width="195.5" height="64" rx="8" fill="#ffffff" stroke="#16191d"/><g transform="translate(549.0,562.0) scale(1.1666666666666667)"><path d="M23.546 10.93L13.067.452c-.604-.603-1.582-.603-2.188 0L8.708 2.627l2.76 2.76c.645-.215 1.379-.07 1.889.441.516.515.658 1.258.438 1.9l2.658 2.66c.645-.223 1.387-.078 1.9.435.721.72.721 1.884 0 2.604-.719.719-1.881.719-2.6 0-.539-.541-.674-1.337-.404-1.996L12.86 8.955v6.525c.176.086.342.203.488.348.713.721.713 1.883 0 2.6-.719.721-1.889.721-2.609 0-.719-.719-.719-1.879 0-2.598.182-.18.387-.316.605-.406V8.835c-.217-.091-.424-.222-.6-.401-.545-.545-.676-1.342-.396-2.009L7.636 3.7.45 10.881c-.6.605-.6 1.584 0 2.189l10.48 10.477c.604.604 1.582.604 2.186 0l10.43-10.43c.605-.603.605-1.582 0-2.187" fill="#F05032"/></g><text x="589.0" y="572.0" font-size="14" fill="#16191d" font-weight="bold" text-anchor="start" font-family="NanumGothic, Helvetica, Arial, sans-serif">git push</text><text x="589.0" y="591.0" font-size="11" fill="#454b52" font-weight="normal" text-anchor="start" font-family="NanumGothic, Helvetica, Arial, sans-serif">GitHub · main 브랜치</text><rect x="746.5" y="544" width="195.5" height="64" rx="8" fill="#ffffff" stroke="#16191d"/><g transform="translate(762.5,562.0) scale(1.1666666666666667)"><path d="M12.19 2.38a9.344 9.344 0 0 0-9.234 6.893c.053-.02-.055.013 0 0-3.875 2.551-3.922 8.11-.247 10.941l.006-.007-.007.03a6.717 6.717 0 0 0 4.077 1.356h5.173l.03.03h5.192c6.687.053 9.376-8.605 3.835-12.35a9.365 9.365 0 0 0-2.821-4.552l-.043.043.006-.05A9.344 9.344 0 0 0 12.19 2.38zm-.358 4.146c1.244-.04 2.518.368 3.486 1.15a5.186 5.186 0 0 1 1.862 4.078v.518c3.53-.07 3.53 5.262 0 5.193h-5.193l-.008.009v-.04H6.785a2.59 2.59 0 0 1-1.067-.23h.001a2.597 2.597 0 1 1 3.437-3.437l3.013-3.012A6.747 6.747 0 0 0 8.11 8.24c.018-.01.04-.026.054-.023a5.186 5.186 0 0 1 3.67-1.69z" fill="#4285F4"/></g><text x="802.5" y="572.0" font-size="14" fill="#16191d" font-weight="bold" text-anchor="start" font-family="NanumGothic, Helvetica, Arial, sans-serif">Cloud Build</text><text x="802.5" y="591.0" font-size="11" fill="#454b52" font-weight="normal" text-anchor="start" font-family="NanumGothic, Helvetica, Arial, sans-serif">린트·테스트·빌드 → 배포</text><text x="500.0" y="646" font-size="12" fill="#16191d" font-weight="normal" text-anchor="middle" font-family="NanumGothic, Helvetica, Arial, sans-serif">그림. MetricLens AI 레이어드 시스템 아키텍처 (GCP 네이티브, Cloud Run).</text></svg>