<svg xmlns="http://www.w3.org/2000/svg" width="1140" height="620" viewBox="0 0 1140 620"><rect width="1140" height="620" fill="#ffffff"/><rect x="30" y="40" width="1080" height="110" rx="10" fill="#ffffff" stroke="#16191d"/><text x="46" y="62" font-size="13" fill="#16191d" font-weight="bold" text-anchor="start" font-family="NanumGothic, Helvetica, Arial, sans-serif">CI/CD pipeline (Cloud Build to Cloud Run)</text><text x="46" y="79" font-size="10" fill="#454b52" font-weight="normal" text-anchor="start" font-family="NanumGothic, Helvetica, Arial, sans-serif">git push -&gt; lint -&gt; test -&gt; build image -&gt; deploy -&gt; health check</text><rect x="50" y="78" width="150" height="58" rx="8" fill="#fff" stroke="#16191d"/><g transform="translate(64,94.0) scale(1.0833333333333333)"><path d="M23.546 10.93L13.067.452c-.604-.603-1.582-.603-2.188 0L8.708 2.627l2.76 2.76c.645-.215 1.379-.07 1.889.441.516.515.658 1.258.438 1.9l2.658 2.66c.645-.223 1.387-.078 1.9.435.721.72.721 1.884 0 2.604-.719.719-1.881.719-2.6 0-.539-.541-.674-1.337-.404-1.996L12.86 8.955v6.525c.176.086.342.203.488.348.713.721.713 1.883 0 2.6-.719.721-1.889.721-2.609 0-.719-.719-.719-1.879 0-2.598.182-.18.387-.316.605-.406V8.835c-.217-.091-.424-.222-.6-.401-.545-.545-.676-1.342-.396-2.009L7.636 3.7.45 10.881c-.6.605-.6 1.584 0 2.189l10.48 10.477c.604.604 1.582.604 2.186 0l10.43-10.43c.605-.603.605-1.582 0-2.187" fill="#4285F4"/></g><text x="100" y="104.0" font-size="13" fill="#16191d" font-weight="bold" text-anchor="start" font-family="NanumGothic, Helvetica, Arial, sans-serif">Developer</text><text x="100" y="122.0" font-size="10.5" fill="#454b52" font-weight="normal" text-anchor="start" font-family="NanumGothic, Helvetica, Arial, sans-serif">git push</text><rect x="270" y="78" width="230" height="58" rx="8" fill="#fff" stroke="#16191d"/><g transform="translate(284,94.0) scale(1.0833333333333333)"><path d="M12.19 2.38a9.344 9.344 0 0 0-9.234 6.893c.053-.02-.055.013 0 0-3.875 2.551-3.922 8.11-.247 10.941l.006-.007-.007.03a6.717 6.717 0 0 0 4.077 1.356h5.173l.03.03h5.192c6.687.053 9.376-8.605 3.835-12.35a9.365 9.365 0 0 0-2.821-4.552l-.043.043.006-.05A9.344 9.344 0 0 0 12.19 2.38zm-.358 4.146c1.244-.04 2.518.368 3.486 1.15a5.186 5.186 0 0 1 1.862 4.078v.518c3.53-.07 3.53 5.262 0 5.193h-5.193l-.008.009v-.04H6.785a2.59 2.59 0 0 1-1.067-.23h.001a2.597 2.597 0 1 1 3.437-3.437l3.013-3.012A6.747 6.747 0 0 0 8.11 8.24c.018-.01.04-.026.054-.023a5.186 5.186 0 0 1 3.67-1.69z" fill="#4285F4"/></g><text x="320" y="104.0" font-size="13" fill="#16191d" font-weight="bold" text-anchor="start" font-family="NanumGothic, Helvetica, Arial, sans-serif">Cloud Build</text><text x="320" y="122.0" font-size="10.5" fill="#454b52" font-weight="normal" text-anchor="start" font-family="NanumGothic, Helvetica, Arial, sans-serif">lint·test·build·deploy</text><rect x="560" y="78" width="180" height="58" rx="8" fill="#fff" stroke="#16191d"/><g transform="translate(574,94.0) scale(1.0833333333333333)"><path d="M12.19 2.38a9.344 9.344 0 0 0-9.234 6.893c.053-.02-.055.013 0 0-3.875 2.551-3.922 8.11-.247 10.941l.006-.007-.007.03a6.717 6.717 0 0 0 4.077 1.356h5.173l.03.03h5.192c6.687.053 9.376-8.605 3.835-12.35a9.365 9.365 0 0 0-2.821-4.552l-.043.043.006-.05A9.344 9.344 0 0 0 12.19 2.38zm-.358 4.146c1.244-.04 2.518.368 3.486 1.15a5.186 5.186 0 0 1 1.862 4.078v.518c3.53-.07 3.53 5.262 0 5.193h-5.193l-.008.009v-.04H6.785a2.59 2.59 0 0 1-1.067-.23h.001a2.597 2.597 0 1 1 3.437-3.437l3.013-3.012A6.747 6.747 0 0 0 8.11 8.24c.018-.01.04-.026.054-.023a5.186 5.186 0 0 1 3.67-1.69z" fill="#4285F4"/></g><text x="610" y="104.0" font-size="13" fill="#16191d" font-weight="bold" text-anchor="start" font-family="NanumGothic, Helvetica, Arial, sans-serif">Artifact Registry</text><text x="610" y="122.0" font-size="10.5" fill="#454b52" font-weight="normal" text-anchor="start" font-family="NanumGothic, Helvetica, Arial, sans-serif">container images</text><rect x="800" y="78" width="190" height="58" rx="8" fill="#fff" stroke="#16191d"/><g transform="translate(814,94.0) scale(1.0833333333333333)"><path d="M12.19 2.38a9.344 9.344 0 0 0-9.234 6.893c.053-.02-.055.013 0 0-3.875 2.551-3.922 8.11-.247 10.941l.006-.007-.007.03a6.717 6.717 0 0 0 4.077 1.356h5.173l.03.03h5.192c6.687.053 9.376-8.605 3.835-12.35a9.365 9.365 0 0 0-2.821-4.552l-.043.043.006-.05A9.344 9.344 0 0 0 12.19 2.38zm-.358 4.146c1.244-.04 2.518.368 3.486 1.15a5.186 5.186 0 0 1 1.862 4.078v.518c3.53-.07 3.53 5.262 0 5.193h-5.193l-.008.009v-.04H6.785a2.59 2.59 0 0 1-1.067-.23h.001a2.597 2.597 0 1 1 3.437-3.437l3.013-3.012A6.747 6.747 0 0 0 8.11 8.24c.018-.01.04-.026.054-.023a5.186 5.186 0 0 1 3.67-1.69z" fill="#4285F4"/></g><text x="850" y="104.0" font-size="13" fill="#16191d" font-weight="bold" text-anchor="start" font-family="NanumGothic, Helvetica, Arial, sans-serif">Cloud Run</text><text x="850" y="122.0" font-size="10.5" fill="#454b52" font-weight="normal" text-anchor="start" font-family="NanumGothic, Helvetica, Arial, sans-serif">scale-to-zero</text><line x1="200" y1="107.0" x2="263.0" y2="107.0" stroke="#16191d" stroke-width="1.5"/><path d="M270.0,107.0 L256.9,110.4 L256.9,103.6 Z" fill="#16191d"/><text x="235.0" y="102.0" font-size="10.5" fill="#454b52" font-weight="normal" text-anchor="middle" font-family="NanumGothic, Helvetica, Arial, sans-serif">trigger</text><line x1="500" y1="107.0" x2="553.0" y2="107.0" stroke="#16191d" stroke-width="1.5"/><path d="M560.0,107.0 L546.9,110.4 L546.9,103.6 Z" fill="#16191d"/><text x="530.0" y="102.0" font-size="10.5" fill="#454b52" font-weight="normal" text-anchor="middle" font-family="NanumGothic, Helvetica, Arial, sans-serif">image</text><line x1="740" y1="107.0" x2="793.0" y2="107.0" stroke="#16191d" stroke-width="1.5"/><path d="M800.0,107.0 L786.9,110.4 L786.9,103.6 Z" fill="#16191d"/><text x="770.0" y="102.0" font-size="10.5" fill="#454b52" font-weight="normal" text-anchor="middle" font-family="NanumGothic, Helvetica, Arial, sans-serif">deploy</text><rect x="30" y="190" width="1080" height="110" rx="10" fill="#ffffff" stroke="#16191d"/><text x="46" y="212" font-size="13" fill="#16191d" font-weight="bold" text-anchor="start" font-family="NanumGothic, Helvetica, Arial, sans-serif">Runtime serving (serverless)</text><text x="46" y="229" font-size="10" fill="#454b52" font-weight="normal" text-anchor="start" font-family="NanumGothic, Helvetica, Arial, sans-serif">browser -&gt; frontend -&gt; backend; secrets from Secret Manager</text><rect x="50" y="228" width="150" height="58" rx="8" fill="#fff" stroke="#16191d"/><text x="64" y="254.0" font-size="13" fill="#16191d" font-weight="bold" text-anchor="start" font-family="NanumGothic, Helvetica, Arial, sans-serif">Browser</text><text x="64" y="272.0" font-size="10.5" fill="#454b52" font-weight="normal" text-anchor="start" font-family="NanumGothic, Helvetica, Arial, sans-serif">React SPA</text><rect x="270" y="228" width="190" height="58" rx="8" fill="#fff" stroke="#16191d"/><g transform="translate(284,244.0) scale(1.0833333333333333)"><path d="M12.19 2.38a9.344 9.344 0 0 0-9.234 6.893c.053-.02-.055.013 0 0-3.875 2.551-3.922 8.11-.247 10.941l.006-.007-.007.03a6.717 6.717 0 0 0 4.077 1.356h5.173l.03.03h5.192c6.687.053 9.376-8.605 3.835-12.35a9.365 9.365 0 0 0-2.821-4.552l-.043.043.006-.05A9.344 9.344 0 0 0 12.19 2.38zm-.358 4.146c1.244-.04 2.518.368 3.486 1.15a5.186 5.186 0 0 1 1.862 4.078v.518c3.53-.07 3.53 5.262 0 5.193h-5.193l-.008.009v-.04H6.785a2.59 2.59 0 0 1-1.067-.23h.001a2.597 2.597 0 1 1 3.437-3.437l3.013-3.012A6.747 6.747 0 0 0 8.11 8.24c.018-.01.04-.026.054-.023a5.186 5.186 0 0 1 3.67-1.69z" fill="#4285F4"/></g><text x="320" y="254.0" font-size="13" fill="#16191d" font-weight="bold" text-anchor="start" font-family="NanumGothic, Helvetica, Arial, sans-serif">Frontend</text><text x="320" y="272.0" font-size="10.5" fill="#454b52" font-weight="normal" text-anchor="start" font-family="NanumGothic, Helvetica, Arial, sans-serif">Cloud Run · nginx</text><rect x="520" y="228" width="190" height="58" rx="8" fill="#fff" stroke="#16191d"/><g transform="translate(534,244.0) scale(1.0833333333333333)"><path d="M12.19 2.38a9.344 9.344 0 0 0-9.234 6.893c.053-.02-.055.013 0 0-3.875 2.551-3.922 8.11-.247 10.941l.006-.007-.007.03a6.717 6.717 0 0 0 4.077 1.356h5.173l.03.03h5.192c6.687.053 9.376-8.605 3.835-12.35a9.365 9.365 0 0 0-2.821-4.552l-.043.043.006-.05A9.344 9.344 0 0 0 12.19 2.38zm-.358 4.146c1.244-.04 2.518.368 3.486 1.15a5.186 5.186 0 0 1 1.862 4.078v.518c3.53-.07 3.53 5.262 0 5.193h-5.193l-.008.009v-.04H6.785a2.59 2.59 0 0 1-1.067-.23h.001a2.597 2.597 0 1 1 3.437-3.437l3.013-3.012A6.747 6.747 0 0 0 8.11 8.24c.018-.01.04-.026.054-.023a5.186 5.186 0 0 1 3.67-1.69z" fill="#4285F4"/></g><text x="570" y="254.0" font-size="13" fill="#16191d" font-weight="bold" text-anchor="start" font-family="NanumGothic, Helvetica, Arial, sans-serif">Backend</text><text x="570" y="272.0" font-size="10.5" fill="#454b52" font-weight="normal" text-anchor="start" font-family="NanumGothic, Helvetica, Arial, sans-serif">FastAPI · Cloud Run</text><rect x="800" y="228" width="190" height="58" rx="8" fill="#fff" stroke="#16191d"/><g transform="translate(814,244.0) scale(1.0833333333333333)"><path d="M12.19 2.38a9.344 9.344 0 0 0-9.234 6.893c.053-.02-.055.013 0 0-3.875 2.551-3.922 8.11-.247 10.941l.006-.007-.007.03a6.717 6.717 0 0 0 4.077 1.356h5.173l.03.03h5.192c6.687.053 9.376-8.605 3.835-12.35a9.365 9.365 0 0 0-2.821-4.552l-.043.043.006-.05A9.344 9.344 0 0 0 12.19 2.38zm-.358 4.146c1.244-.04 2.518.368 3.486 1.15a5.186 5.186 0 0 1 1.862 4.078v.518c3.53-.07 3.53 5.262 0 5.193h-5.193l-.008.009v-.04H6.785a2.59 2.59 0 0 1-1.067-.23h.001a2.597 2.597 0 1 1 3.437-3.437l3.013-3.012A6.747 6.747 0 0 0 8.11 8.24c.018-.01.04-.026.054-.023a5.186 5.186 0 0 1 3.67-1.69z" fill="#4285F4"/></g><text x="850" y="254.0" font-size="13" fill="#16191d" font-weight="bold" text-anchor="start" font-family="NanumGothic, Helvetica, Arial, sans-serif">Secret Manager</text><text x="850" y="272.0" font-size="10.5" fill="#454b52" font-weight="normal" text-anchor="start" font-family="NanumGothic, Helvetica, Arial, sans-serif">DB DSN / secrets</text><line x1="200" y1="257.0" x2="263.0" y2="257.0" stroke="#16191d" stroke-width="1.5"/><path d="M270.0,257.0 L256.9,260.4 L256.9,253.6 Z" fill="#16191d"/><text x="235.0" y="252.0" font-size="10.5" fill="#454b52" font-weight="normal" text-anchor="middle" font-family="NanumGothic, Helvetica, Arial, sans-serif">HTTPS</text><line x1="460" y1="257.0" x2="513.0" y2="257.0" stroke="#16191d" stroke-width="1.5"/><path d="M520.0,257.0 L506.9,260.4 L506.9,253.6 Z" fill="#16191d"/><text x="490.0" y="252.0" font-size="10.5" fill="#454b52" font-weight="normal" text-anchor="middle" font-family="NanumGothic, Helvetica, Arial, sans-serif">REST</text><line x1="710" y1="257.0" x2="793.0" y2="257.0" stroke="#16191d" stroke-width="1.5"/><path d="M800.0,257.0 L786.9,260.4 L786.9,253.6 Z" fill="#16191d"/><text x="755.0" y="252.0" font-size="10.5" fill="#454b52" font-weight="normal" text-anchor="middle" font-family="NanumGothic, Helvetica, Arial, sans-serif">secrets</text><rect x="30" y="340" width="1080" height="240" rx="10" fill="#ffffff" stroke="#16191d"/><text x="46" y="362" font-size="13" fill="#16191d" font-weight="bold" text-anchor="start" font-family="NanumGothic, Helvetica, Arial, sans-serif">Real-fleet monitoring &amp; resize (Cloud Monitoring + Compute Engine)</text><text x="46" y="379" font-size="10" fill="#454b52" font-weight="normal" text-anchor="start" font-family="NanumGothic, Helvetica, Arial, sans-serif">backend reads live CPU/memory and resizes real VMs within the budget guard</text><rect x="80" y="418" width="210" height="56" rx="8" fill="#fff" stroke="#16191d"/><g transform="translate(94,433.0) scale(1.0833333333333333)"><path d="M12.19 2.38a9.344 9.344 0 0 0-9.234 6.893c.053-.02-.055.013 0 0-3.875 2.551-3.922 8.11-.247 10.941l.006-.007-.007.03a6.717 6.717 0 0 0 4.077 1.356h5.173l.03.03h5.192c6.687.053 9.376-8.605 3.835-12.35a9.365 9.365 0 0 0-2.821-4.552l-.043.043.006-.05A9.344 9.344 0 0 0 12.19 2.38zm-.358 4.146c1.244-.04 2.518.368 3.486 1.15a5.186 5.186 0 0 1 1.862 4.078v.518c3.53-.07 3.53 5.262 0 5.193h-5.193l-.008.009v-.04H6.785a2.59 2.59 0 0 1-1.067-.23h.001a2.597 2.597 0 1 1 3.437-3.437l3.013-3.012A6.747 6.747 0 0 0 8.11 8.24c.018-.01.04-.026.054-.023a5.186 5.186 0 0 1 3.67-1.69z" fill="#4285F4"/></g><text x="130" y="443.0" font-size="13" fill="#16191d" font-weight="bold" text-anchor="start" font-family="NanumGothic, Helvetica, Arial, sans-serif">Cloud Monitoring</text><text x="130" y="461.0" font-size="10.5" fill="#454b52" font-weight="normal" text-anchor="start" font-family="NanumGothic, Helvetica, Arial, sans-serif">CPU + memory</text><rect x="470" y="418" width="230" height="56" rx="8" fill="#fff" stroke="#16191d"/><g transform="translate(484,433.0) scale(1.0833333333333333)"><path d="M12.19 2.38a9.344 9.344 0 0 0-9.234 6.893c.053-.02-.055.013 0 0-3.875 2.551-3.922 8.11-.247 10.941l.006-.007-.007.03a6.717 6.717 0 0 0 4.077 1.356h5.173l.03.03h5.192c6.687.053 9.376-8.605 3.835-12.35a9.365 9.365 0 0 0-2.821-4.552l-.043.043.006-.05A9.344 9.344 0 0 0 12.19 2.38zm-.358 4.146c1.244-.04 2.518.368 3.486 1.15a5.186 5.186 0 0 1 1.862 4.078v.518c3.53-.07 3.53 5.262 0 5.193h-5.193l-.008.009v-.04H6.785a2.59 2.59 0 0 1-1.067-.23h.001a2.597 2.597 0 1 1 3.437-3.437l3.013-3.012A6.747 6.747 0 0 0 8.11 8.24c.018-.01.04-.026.054-.023a5.186 5.186 0 0 1 3.67-1.69z" fill="#4285F4"/></g><text x="520" y="443.0" font-size="13" fill="#16191d" font-weight="bold" text-anchor="start" font-family="NanumGothic, Helvetica, Arial, sans-serif">Compute Engine API</text><text x="520" y="461.0" font-size="10.5" fill="#454b52" font-weight="normal" text-anchor="start" font-family="NanumGothic, Helvetica, Arial, sans-serif">setMachineType</text><rect x="820" y="418" width="270" height="68" rx="8" fill="#fff" stroke="#16191d"/><text x="834" y="449.0" font-size="13" fill="#16191d" font-weight="bold" text-anchor="start" font-family="NanumGothic, Helvetica, Arial, sans-serif">Real fleet · ml-web/api/batch/idle</text><text x="834" y="467.0" font-size="10.5" fill="#454b52" font-weight="normal" text-anchor="start" font-family="NanumGothic, Helvetica, Arial, sans-serif">e2-small · load generator + Ops Agent</text><path d="M615.0,286.0 L615.0,407.0" fill="none" stroke="#16191d" stroke-width="1.5"/><path d="M615.0,414.0 L611.6,407.9 L618.4,407.9 Z" fill="#16191d"/><text x="625" y="352" font-size="10.5" fill="#454b52" font-weight="normal" text-anchor="start" font-family="NanumGothic, Helvetica, Arial, sans-serif">resize (budget-guarded)</text><path d="M560.0,286.0 L560.0,402.0 L185.0,402.0 L185.0,407.0" fill="none" stroke="#16191d" stroke-width="1.5"/><path d="M185.0,414.0 L181.6,407.9 L188.4,407.9 Z" fill="#16191d"/><text x="378" y="396" font-size="10.5" fill="#454b52" font-weight="normal" text-anchor="middle" font-family="NanumGothic, Helvetica, Arial, sans-serif">read CPU/mem</text><path d="M700.0,446.0 L809.0,446.0" fill="none" stroke="#16191d" stroke-width="1.5"/><path d="M816.0,446.0 L809.9,449.4 L809.9,442.6 Z" fill="#16191d"/><text x="760.0" y="438.0" font-size="10.5" fill="#454b52" font-weight="normal" text-anchor="middle" font-family="NanumGothic, Helvetica, Arial, sans-serif">stop-&gt;change-&gt;start</text><path d="M955.0,486.0 L955.0,540.0 L185.0,540.0 L185.0,485.0" fill="none" stroke="#16191d" stroke-width="1.5"/><path d="M185.0,478.0 L188.4,484.1 L181.6,484.1 Z" fill="#16191d"/><text x="575" y="534" font-size="10.5" fill="#454b52" font-weight="normal" text-anchor="middle" font-family="NanumGothic, Helvetica, Arial, sans-serif">push metrics (Ops Agent)</text><text x="570.0" y="604" font-size="12" fill="#16191d" font-weight="normal" text-anchor="middle" font-family="NanumGothic, Helvetica, Arial, sans-serif">Figure. MetricLens runtime &amp; CI/CD operation (GCP-native serverless).</text></svg>