<svg xmlns="http://www.w3.org/2000/svg" width="1140" height="600" viewBox="0 0 1140 600"><rect width="1140" height="600" fill="#ffffff"/><rect x="30" y="40" width="1080" height="110" rx="10" fill="#f5f7f9" stroke="#d0d7de"/><text x="46" y="62" font-size="13" fill="#1f2328" font-weight="bold" text-anchor="start" font-family="NanumGothic, Helvetica, Arial, sans-serif">CI/CD 파이프라인 (Cloud Build → Cloud Run)</text><text x="46" y="79" font-size="10" fill="#57606a" font-weight="normal" text-anchor="start" font-family="NanumGothic, Helvetica, Arial, sans-serif">git push → 린트 → 테스트 → 이미지 빌드 → 배포 → 헬스 체크</text><rect x="50" y="78" width="150" height="58" rx="8" fill="#ffffff" stroke="#c2c9d1"/><g transform="translate(64,94.0) scale(1.0833333333333333)"><path d="M23.546 10.93L13.067.452c-.604-.603-1.582-.603-2.188 0L8.708 2.627l2.76 2.76c.645-.215 1.379-.07 1.889.441.516.515.658 1.258.438 1.9l2.658 2.66c.645-.223 1.387-.078 1.9.435.721.72.721 1.884 0 2.604-.719.719-1.881.719-2.6 0-.539-.541-.674-1.337-.404-1.996L12.86 8.955v6.525c.176.086.342.203.488.348.713.721.713 1.883 0 2.6-.719.721-1.889.721-2.609 0-.719-.719-.719-1.879 0-2.598.182-.18.387-.316.605-.406V8.835c-.217-.091-.424-.222-.6-.401-.545-.545-.676-1.342-.396-2.009L7.636 3.7.45 10.881c-.6.605-.6 1.584 0 2.189l10.48 10.477c.604.604 1.582.604 2.186 0l10.43-10.43c.605-.603.605-1.582 0-2.187" fill="#4285F4"/></g><text x="100" y="104.0" font-size="13" fill="#1f2328" font-weight="bold" text-anchor="start" font-family="NanumGothic, Helvetica, Arial, sans-serif">개발자(Developer)</text><text x="100" y="122.0" font-size="10.5" fill="#57606a" font-weight="normal" text-anchor="start" font-family="NanumGothic, Helvetica, Arial, sans-serif">git push</text><rect x="270" y="78" width="230" height="58" rx="8" fill="#ffffff" stroke="#c2c9d1"/><g transform="translate(284,94.0) scale(1.0833333333333333)"><path d="M12.19 2.38a9.344 9.344 0 0 0-9.234 6.893c.053-.02-.055.013 0 0-3.875 2.551-3.922 8.11-.247 10.941l.006-.007-.007.03a6.717 6.717 0 0 0 4.077 1.356h5.173l.03.03h5.192c6.687.053 9.376-8.605 3.835-12.35a9.365 9.365 0 0 0-2.821-4.552l-.043.043.006-.05A9.344 9.344 0 0 0 12.19 2.38zm-.358 4.146c1.244-.04 2.518.368 3.486 1.15a5.186 5.186 0 0 1 1.862 4.078v.518c3.53-.07 3.53 5.262 0 5.193h-5.193l-.008.009v-.04H6.785a2.59 2.59 0 0 1-1.067-.23h.001a2.597 2.597 0 1 1 3.437-3.437l3.013-3.012A6.747 6.747 0 0 0 8.11 8.24c.018-.01.04-.026.054-.023a5.186 5.186 0 0 1 3.67-1.69z" fill="#4285F4"/></g><text x="320" y="104.0" font-size="13" fill="#1f2328" font-weight="bold" text-anchor="start" font-family="NanumGothic, Helvetica, Arial, sans-serif">Cloud Build</text><text x="320" y="122.0" font-size="10.5" fill="#57606a" font-weight="normal" text-anchor="start" font-family="NanumGothic, Helvetica, Arial, sans-serif">린트·테스트·빌드·배포</text><rect x="560" y="78" width="180" height="58" rx="8" fill="#ffffff" stroke="#c2c9d1"/><g transform="translate(574,94.0) scale(1.0833333333333333)"><path d="M12.19 2.38a9.344 9.344 0 0 0-9.234 6.893c.053-.02-.055.013 0 0-3.875 2.551-3.922 8.11-.247 10.941l.006-.007-.007.03a6.717 6.717 0 0 0 4.077 1.356h5.173l.03.03h5.192c6.687.053 9.376-8.605 3.835-12.35a9.365 9.365 0 0 0-2.821-4.552l-.043.043.006-.05A9.344 9.344 0 0 0 12.19 2.38zm-.358 4.146c1.244-.04 2.518.368 3.486 1.15a5.186 5.186 0 0 1 1.862 4.078v.518c3.53-.07 3.53 5.262 0 5.193h-5.193l-.008.009v-.04H6.785a2.59 2.59 0 0 1-1.067-.23h.001a2.597 2.597 0 1 1 3.437-3.437l3.013-3.012A6.747 6.747 0 0 0 8.11 8.24c.018-.01.04-.026.054-.023a5.186 5.186 0 0 1 3.67-1.69z" fill="#4285F4"/></g><text x="610" y="104.0" font-size="13" fill="#1f2328" font-weight="bold" text-anchor="start" font-family="NanumGothic, Helvetica, Arial, sans-serif">Artifact Registry</text><text x="610" y="122.0" font-size="10.5" fill="#57606a" font-weight="normal" text-anchor="start" font-family="NanumGothic, Helvetica, Arial, sans-serif">컨테이너 이미지</text><rect x="800" y="78" width="190" height="58" rx="8" fill="#ffffff" stroke="#c2c9d1"/><g transform="translate(814,94.0) scale(1.0833333333333333)"><path d="M12.19 2.38a9.344 9.344 0 0 0-9.234 6.893c.053-.02-.055.013 0 0-3.875 2.551-3.922 8.11-.247 10.941l.006-.007-.007.03a6.717 6.717 0 0 0 4.077 1.356h5.173l.03.03h5.192c6.687.053 9.376-8.605 3.835-12.35a9.365 9.365 0 0 0-2.821-4.552l-.043.043.006-.05A9.344 9.344 0 0 0 12.19 2.38zm-.358 4.146c1.244-.04 2.518.368 3.486 1.15a5.186 5.186 0 0 1 1.862 4.078v.518c3.53-.07 3.53 5.262 0 5.193h-5.193l-.008.009v-.04H6.785a2.59 2.59 0 0 1-1.067-.23h.001a2.597 2.597 0 1 1 3.437-3.437l3.013-3.012A6.747 6.747 0 0 0 8.11 8.24c.018-.01.04-.026.054-.023a5.186 5.186 0 0 1 3.67-1.69z" fill="#4285F4"/></g><text x="850" y="104.0" font-size="13" fill="#1f2328" font-weight="bold" text-anchor="start" font-family="NanumGothic, Helvetica, Arial, sans-serif">Cloud Run</text><text x="850" y="122.0" font-size="10.5" fill="#57606a" font-weight="normal" text-anchor="start" font-family="NanumGothic, Helvetica, Arial, sans-serif">scale-to-zero</text><line x1="200" y1="107.0" x2="263.0" y2="107.0" stroke="#57606a" stroke-width="1.5"/><path d="M270.0,107.0 L256.9,110.4 L256.9,103.6 Z" fill="#57606a"/><text x="235.0" y="102.0" font-size="10.5" fill="#57606a" font-weight="normal" text-anchor="middle" font-family="NanumGothic, Helvetica, Arial, sans-serif">트리거</text><line x1="500" y1="107.0" x2="553.0" y2="107.0" stroke="#57606a" stroke-width="1.5"/><path d="M560.0,107.0 L546.9,110.4 L546.9,103.6 Z" fill="#57606a"/><text x="530.0" y="102.0" font-size="10.5" fill="#57606a" font-weight="normal" text-anchor="middle" font-family="NanumGothic, Helvetica, Arial, sans-serif">이미지</text><line x1="740" y1="107.0" x2="793.0" y2="107.0" stroke="#57606a" stroke-width="1.5"/><path d="M800.0,107.0 L786.9,110.4 L786.9,103.6 Z" fill="#57606a"/><text x="770.0" y="102.0" font-size="10.5" fill="#57606a" font-weight="normal" text-anchor="middle" font-family="NanumGothic, Helvetica, Arial, sans-serif">배포</text><rect x="30" y="190" width="1080" height="110" rx="10" fill="#f5f7f9" stroke="#d0d7de"/><text x="46" y="212" font-size="13" fill="#1f2328" font-weight="bold" text-anchor="start" font-family="NanumGothic, Helvetica, Arial, sans-serif">런타임 서빙 (서버리스)</text><text x="46" y="229" font-size="10" fill="#57606a" font-weight="normal" text-anchor="start" font-family="NanumGothic, Helvetica, Arial, sans-serif">브라우저 → 프론트엔드 → 백엔드, 비밀값은 Secret Manager</text><rect x="50" y="228" width="150" height="58" rx="8" fill="#ffffff" stroke="#c2c9d1"/><text x="64" y="254.0" font-size="13" fill="#1f2328" font-weight="bold" text-anchor="start" font-family="NanumGothic, Helvetica, Arial, sans-serif">브라우저(Browser)</text><text x="64" y="272.0" font-size="10.5" fill="#57606a" font-weight="normal" text-anchor="start" font-family="NanumGothic, Helvetica, Arial, sans-serif">React SPA</text><rect x="270" y="228" width="190" height="58" rx="8" fill="#ffffff" stroke="#c2c9d1"/><g transform="translate(284,244.0) scale(1.0833333333333333)"><path d="M12.19 2.38a9.344 9.344 0 0 0-9.234 6.893c.053-.02-.055.013 0 0-3.875 2.551-3.922 8.11-.247 10.941l.006-.007-.007.03a6.717 6.717 0 0 0 4.077 1.356h5.173l.03.03h5.192c6.687.053 9.376-8.605 3.835-12.35a9.365 9.365 0 0 0-2.821-4.552l-.043.043.006-.05A9.344 9.344 0 0 0 12.19 2.38zm-.358 4.146c1.244-.04 2.518.368 3.486 1.15a5.186 5.186 0 0 1 1.862 4.078v.518c3.53-.07 3.53 5.262 0 5.193h-5.193l-.008.009v-.04H6.785a2.59 2.59 0 0 1-1.067-.23h.001a2.597 2.597 0 1 1 3.437-3.437l3.013-3.012A6.747 6.747 0 0 0 8.11 8.24c.018-.01.04-.026.054-.023a5.186 5.186 0 0 1 3.67-1.69z" fill="#4285F4"/></g><text x="320" y="254.0" font-size="13" fill="#1f2328" font-weight="bold" text-anchor="start" font-family="NanumGothic, Helvetica, Arial, sans-serif">프론트엔드</text><text x="320" y="272.0" font-size="10.5" fill="#57606a" font-weight="normal" text-anchor="start" font-family="NanumGothic, Helvetica, Arial, sans-serif">Cloud Run · nginx</text><rect x="520" y="228" width="190" height="58" rx="8" fill="#ffffff" stroke="#c2c9d1"/><g transform="translate(534,244.0) scale(1.0833333333333333)"><path d="M12.19 2.38a9.344 9.344 0 0 0-9.234 6.893c.053-.02-.055.013 0 0-3.875 2.551-3.922 8.11-.247 10.941l.006-.007-.007.03a6.717 6.717 0 0 0 4.077 1.356h5.173l.03.03h5.192c6.687.053 9.376-8.605 3.835-12.35a9.365 9.365 0 0 0-2.821-4.552l-.043.043.006-.05A9.344 9.344 0 0 0 12.19 2.38zm-.358 4.146c1.244-.04 2.518.368 3.486 1.15a5.186 5.186 0 0 1 1.862 4.078v.518c3.53-.07 3.53 5.262 0 5.193h-5.193l-.008.009v-.04H6.785a2.59 2.59 0 0 1-1.067-.23h.001a2.597 2.597 0 1 1 3.437-3.437l3.013-3.012A6.747 6.747 0 0 0 8.11 8.24c.018-.01.04-.026.054-.023a5.186 5.186 0 0 1 3.67-1.69z" fill="#4285F4"/></g><text x="570" y="254.0" font-size="13" fill="#1f2328" font-weight="bold" text-anchor="start" font-family="NanumGothic, Helvetica, Arial, sans-serif">백엔드</text><text x="570" y="272.0" font-size="10.5" fill="#57606a" font-weight="normal" text-anchor="start" font-family="NanumGothic, Helvetica, Arial, sans-serif">FastAPI · Cloud Run</text><rect x="800" y="228" width="190" height="58" rx="8" fill="#ffffff" stroke="#c2c9d1"/><g transform="translate(814,244.0) scale(1.0833333333333333)"><path d="M12.19 2.38a9.344 9.344 0 0 0-9.234 6.893c.053-.02-.055.013 0 0-3.875 2.551-3.922 8.11-.247 10.941l.006-.007-.007.03a6.717 6.717 0 0 0 4.077 1.356h5.173l.03.03h5.192c6.687.053 9.376-8.605 3.835-12.35a9.365 9.365 0 0 0-2.821-4.552l-.043.043.006-.05A9.344 9.344 0 0 0 12.19 2.38zm-.358 4.146c1.244-.04 2.518.368 3.486 1.15a5.186 5.186 0 0 1 1.862 4.078v.518c3.53-.07 3.53 5.262 0 5.193h-5.193l-.008.009v-.04H6.785a2.59 2.59 0 0 1-1.067-.23h.001a2.597 2.597 0 1 1 3.437-3.437l3.013-3.012A6.747 6.747 0 0 0 8.11 8.24c.018-.01.04-.026.054-.023a5.186 5.186 0 0 1 3.67-1.69z" fill="#4285F4"/></g><text x="850" y="254.0" font-size="13" fill="#1f2328" font-weight="bold" text-anchor="start" font-family="NanumGothic, Helvetica, Arial, sans-serif">Secret Manager</text><text x="850" y="272.0" font-size="10.5" fill="#57606a" font-weight="normal" text-anchor="start" font-family="NanumGothic, Helvetica, Arial, sans-serif">DB DSN / 비밀값</text><line x1="200" y1="257.0" x2="263.0" y2="257.0" stroke="#57606a" stroke-width="1.5"/><path d="M270.0,257.0 L256.9,260.4 L256.9,253.6 Z" fill="#57606a"/><text x="235.0" y="252.0" font-size="10.5" fill="#57606a" font-weight="normal" text-anchor="middle" font-family="NanumGothic, Helvetica, Arial, sans-serif">HTTPS</text><line x1="460" y1="257.0" x2="513.0" y2="257.0" stroke="#57606a" stroke-width="1.5"/><path d="M520.0,257.0 L506.9,260.4 L506.9,253.6 Z" fill="#57606a"/><text x="490.0" y="252.0" font-size="10.5" fill="#57606a" font-weight="normal" text-anchor="middle" font-family="NanumGothic, Helvetica, Arial, sans-serif">REST</text><line x1="710" y1="257.0" x2="793.0" y2="257.0" stroke="#57606a" stroke-width="1.5"/><path d="M800.0,257.0 L786.9,260.4 L786.9,253.6 Z" fill="#57606a"/><text x="755.0" y="252.0" font-size="10.5" fill="#57606a" font-weight="normal" text-anchor="middle" font-family="NanumGothic, Helvetica, Arial, sans-serif">비밀값</text><rect x="30" y="340" width="1080" height="220" rx="10" fill="#f5f7f9" stroke="#d0d7de"/><text x="46" y="362" font-size="13" fill="#1f2328" font-weight="bold" text-anchor="start" font-family="NanumGothic, Helvetica, Arial, sans-serif">실제 플릿 모니터링 · 리사이즈 (Cloud Monitoring + Compute Engine)</text><text x="46" y="379" font-size="10" fill="#57606a" font-weight="normal" text-anchor="start" font-family="NanumGothic, Helvetica, Arial, sans-serif">백엔드가 실측 CPU/메모리를 읽고, 예산 한도 내에서 실제 VM을 리사이즈</text><rect x="120" y="410" width="220" height="58" rx="8" fill="#ffffff" stroke="#c2c9d1"/><g transform="translate(134,426.0) scale(1.0833333333333333)"><path d="M12.19 2.38a9.344 9.344 0 0 0-9.234 6.893c.053-.02-.055.013 0 0-3.875 2.551-3.922 8.11-.247 10.941l.006-.007-.007.03a6.717 6.717 0 0 0 4.077 1.356h5.173l.03.03h5.192c6.687.053 9.376-8.605 3.835-12.35a9.365 9.365 0 0 0-2.821-4.552l-.043.043.006-.05A9.344 9.344 0 0 0 12.19 2.38zm-.358 4.146c1.244-.04 2.518.368 3.486 1.15a5.186 5.186 0 0 1 1.862 4.078v.518c3.53-.07 3.53 5.262 0 5.193h-5.193l-.008.009v-.04H6.785a2.59 2.59 0 0 1-1.067-.23h.001a2.597 2.597 0 1 1 3.437-3.437l3.013-3.012A6.747 6.747 0 0 0 8.11 8.24c.018-.01.04-.026.054-.023a5.186 5.186 0 0 1 3.67-1.69z" fill="#4285F4"/></g><text x="170" y="436.0" font-size="13" fill="#1f2328" font-weight="bold" text-anchor="start" font-family="NanumGothic, Helvetica, Arial, sans-serif">Cloud Monitoring</text><text x="170" y="454.0" font-size="10.5" fill="#57606a" font-weight="normal" text-anchor="start" font-family="NanumGothic, Helvetica, Arial, sans-serif">CPU + 메모리</text><rect x="470" y="410" width="230" height="58" rx="8" fill="#ffffff" stroke="#c2c9d1"/><g transform="translate(484,426.0) scale(1.0833333333333333)"><path d="M12.19 2.38a9.344 9.344 0 0 0-9.234 6.893c.053-.02-.055.013 0 0-3.875 2.551-3.922 8.11-.247 10.941l.006-.007-.007.03a6.717 6.717 0 0 0 4.077 1.356h5.173l.03.03h5.192c6.687.053 9.376-8.605 3.835-12.35a9.365 9.365 0 0 0-2.821-4.552l-.043.043.006-.05A9.344 9.344 0 0 0 12.19 2.38zm-.358 4.146c1.244-.04 2.518.368 3.486 1.15a5.186 5.186 0 0 1 1.862 4.078v.518c3.53-.07 3.53 5.262 0 5.193h-5.193l-.008.009v-.04H6.785a2.59 2.59 0 0 1-1.067-.23h.001a2.597 2.597 0 1 1 3.437-3.437l3.013-3.012A6.747 6.747 0 0 0 8.11 8.24c.018-.01.04-.026.054-.023a5.186 5.186 0 0 1 3.67-1.69z" fill="#4285F4"/></g><text x="520" y="436.0" font-size="13" fill="#1f2328" font-weight="bold" text-anchor="start" font-family="NanumGothic, Helvetica, Arial, sans-serif">Compute Engine API</text><text x="520" y="454.0" font-size="10.5" fill="#57606a" font-weight="normal" text-anchor="start" font-family="NanumGothic, Helvetica, Arial, sans-serif">setMachineType</text><rect x="760" y="410" width="320" height="70" rx="8" fill="#ffffff" stroke="#c2c9d1"/><text x="774" y="442.0" font-size="13" fill="#1f2328" font-weight="bold" text-anchor="start" font-family="NanumGothic, Helvetica, Arial, sans-serif">실제 플릿 · ml-web/api/batch/idle</text><text x="774" y="460.0" font-size="10.5" fill="#57606a" font-weight="normal" text-anchor="start" font-family="NanumGothic, Helvetica, Arial, sans-serif">e2-small · 부하 생성기 + Ops Agent</text><line x1="615" y1="286" x2="236.7" y2="407.9" stroke="#57606a" stroke-width="1.5"/><path d="M230.0,410.0 L241.5,402.8 L243.5,409.2 Z" fill="#57606a"/><text x="422.5" y="343.0" font-size="10.5" fill="#57606a" font-weight="normal" text-anchor="middle" font-family="NanumGothic, Helvetica, Arial, sans-serif">CPU/메모리 조회</text><line x1="655" y1="286" x2="588.4" y2="403.9" stroke="#57606a" stroke-width="1.5"/><path d="M585.0,410.0 L588.5,396.9 L594.4,400.2 Z" fill="#57606a"/><text x="620.0" y="343.0" font-size="10.5" fill="#57606a" font-weight="normal" text-anchor="middle" font-family="NanumGothic, Helvetica, Arial, sans-serif">리사이즈 (예산 가드)</text><line x1="585" y1="468" x2="753.0" y2="455.5" stroke="#57606a" stroke-width="1.5"/><path d="M760.0,455.0 L747.1,459.3 L746.6,452.6 Z" fill="#57606a"/><text x="672.5" y="456.5" font-size="10.5" fill="#57606a" font-weight="normal" text-anchor="middle" font-family="NanumGothic, Helvetica, Arial, sans-serif">stop→change→start</text><line x1="760" y1="460" x2="347.0" y2="455.1" stroke="#57606a" stroke-width="1.5"/><path d="M340.0,455.0 L353.2,451.8 L353.1,458.5 Z" fill="#57606a"/><text x="560" y="520" font-size="10.5" fill="#57606a" font-weight="normal" text-anchor="middle" font-family="NanumGothic, Helvetica, Arial, sans-serif">메트릭 전송 (Ops Agent)</text><text x="570.0" y="584" font-size="12" fill="#1f2328" font-weight="normal" text-anchor="middle" font-family="NanumGothic, Helvetica, Arial, sans-serif">그림. MetricLens 런타임 · CI/CD 구동 방식 (GCP 네이티브 서버리스).</text></svg>